# xmcd
#
# Track frame offsets:
#	150
#	10419
#	23801
#	39789
#	51966
#	72174
#	92421
#	107143
#	122020
#	136754
#	153497
#	167593
#
# Disc length: 2409 seconds
#
# Revision: 1
# Processed by: cddbd v1.5.2PL0 Copyright (c) Steve Scherf et al.
# Submitted via: EasyCDDAExtractor 16.0.9.1
#
DISCID=8e09670c
DTITLE=Ζαμπέτας Γιώργος - Ακρως Ερωτικά
DYEAR=2002
DGENRE=Ερωτικά
TTITLE0=Ενας Ουρανος Μ' Αστερια
TTITLE1=Θελω Κοντα Σου Να Μεινω
TTITLE2=Εσενα Που Σε Ξερω Τοσο Λιγο
TTITLE3=Μαθαμε Τον Ερωτα
TTITLE4=Στο Μπαρακι
TTITLE5=Φωνες
TTITLE6=Καμια Φορα
TTITLE7=Ισως Φταινε Τα Φεγγαρια
TTITLE8=Φυλλα Φθινοπωρινα
TTITLE9=Φιλα Με Αποψε
TTITLE10=Ιστορια Μου
TTITLE11=Χιλια Περιστερια
EXTD=YEAR: 2002
EXTT0=
EXTT1=
EXTT2=
EXTT3=
EXTT4=
EXTT5=
EXTT6=
EXTT7=
EXTT8=
EXTT9=
EXTT10=
EXTT11=
PLAYORDER=
